<svg width="102" height="80" viewBox="0 0 102 80" fill="none" xmlns="http://www.w3.org/2000/svg">
<circle cx="62" cy="40" r="39.7" stroke="black" stroke-width="0.6"/>
<rect y="29" width="90" height="22" fill="white"/>
<path d="M7.92 43.04C7.92 43.7227 7.74933 44.2987 7.408 44.768C7.07733 45.2267 6.61333 45.5733 6.016 45.808C5.41867 46.0427 4.74133 46.16 3.984 46.16C3.51467 46.16 3.09333 46.1333 2.72 46.08C2.34667 46.0373 2.00533 45.984 1.696 45.92C1.38667 45.8453 1.10933 45.76 0.864 45.664V44.736C1.26933 44.896 1.73867 45.04 2.272 45.168C2.80533 45.2853 3.392 45.344 4.032 45.344C4.61867 45.344 5.13067 45.2587 5.568 45.088C6.016 44.9173 6.36267 44.6667 6.608 44.336C6.864 44.0053 6.992 43.5893 6.992 43.088C6.992 42.6293 6.88533 42.256 6.672 41.968C6.46933 41.68 6.14933 41.4293 5.712 41.216C5.28533 40.992 4.736 40.768 4.064 40.544C3.584 40.3733 3.152 40.1973 2.768 40.016C2.39467 39.8347 2.07467 39.6213 1.808 39.376C1.54133 39.1307 1.33867 38.8427 1.2 38.512C1.06133 38.1813 0.992 37.7813 0.992 37.312C0.992 36.6827 1.152 36.1547 1.472 35.728C1.792 35.3013 2.224 34.976 2.768 34.752C3.32267 34.528 3.94667 34.416 4.64 34.416C5.19467 34.416 5.72267 34.4693 6.224 34.576C6.72533 34.672 7.2 34.8213 7.648 35.024L7.344 35.824C6.896 35.632 6.44267 35.488 5.984 35.392C5.52533 35.296 5.06667 35.248 4.608 35.248C4.07467 35.248 3.60533 35.328 3.2 35.488C2.80533 35.6373 2.496 35.8667 2.272 36.176C2.048 36.4747 1.936 36.848 1.936 37.296C1.936 37.7867 2.04267 38.1813 2.256 38.48C2.46933 38.7787 2.77867 39.0293 3.184 39.232C3.58933 39.424 4.08533 39.6213 4.672 39.824C5.344 40.0587 5.92 40.3093 6.4 40.576C6.89067 40.832 7.264 41.152 7.52 41.536C7.78667 41.92 7.92 42.4213 7.92 43.04ZM16.8464 37.488V46H16.0944L15.9664 44.544H15.9184C15.769 44.8533 15.5557 45.1307 15.2784 45.376C15.0117 45.6213 14.6917 45.8133 14.3184 45.952C13.945 46.0907 13.513 46.16 13.0224 46.16C12.361 46.16 11.8064 46.048 11.3584 45.824C10.921 45.5893 10.5904 45.2427 10.3664 44.784C10.1424 44.3253 10.0304 43.7547 10.0304 43.072V37.488H10.9424V42.992C10.9424 43.8027 11.1237 44.4053 11.4864 44.8C11.8597 45.184 12.4037 45.376 13.1184 45.376C13.7477 45.376 14.2704 45.2587 14.6864 45.024C15.1024 44.7787 15.4117 44.416 15.6144 43.936C15.8277 43.456 15.9344 42.8587 15.9344 42.144V37.488H16.8464ZM28.314 41.968C28.314 42.8427 28.1433 43.5947 27.802 44.224C27.4607 44.8427 26.97 45.3227 26.33 45.664C25.69 45.9947 24.906 46.16 23.978 46.16C22.6127 46.16 21.562 45.792 20.826 45.056C20.1007 44.3093 19.738 43.2693 19.738 41.936V34.576H20.65V41.936C20.65 43.0453 20.938 43.8933 21.514 44.48C22.09 45.056 22.9273 45.344 24.026 45.344C24.7513 45.344 25.3647 45.216 25.866 44.96C26.3673 44.6933 26.746 44.3147 27.002 43.824C27.2687 43.3227 27.402 42.7253 27.402 42.032V34.576H28.314V41.968ZM38.3535 37.344C39.3135 37.344 40.0282 37.5787 40.4975 38.048C40.9668 38.5173 41.2015 39.264 41.2015 40.288V46H40.5135L40.3535 44.56H40.3055C40.1028 44.88 39.8682 45.1627 39.6015 45.408C39.3455 45.6427 39.0308 45.8293 38.6575 45.968C38.2948 46.096 37.8468 46.16 37.3135 46.16C36.7802 46.16 36.3162 46.0693 35.9215 45.888C35.5268 45.696 35.2228 45.424 35.0095 45.072C34.7962 44.72 34.6895 44.288 34.6895 43.776C34.6895 42.9333 35.0362 42.2933 35.7295 41.856C36.4228 41.408 37.4308 41.152 38.7535 41.088L40.3055 41.024V40.416C40.3055 39.5733 40.1348 38.9813 39.7935 38.64C39.4628 38.288 38.9668 38.112 38.3055 38.112C37.8682 38.112 37.4468 38.1707 37.0415 38.288C36.6468 38.3947 36.2468 38.5493 35.8415 38.752L35.5535 38.032C35.9482 37.8293 36.3855 37.664 36.8655 37.536C37.3455 37.408 37.8415 37.344 38.3535 37.344ZM38.8495 41.76C37.7722 41.8133 36.9668 42.0053 36.4335 42.336C35.9002 42.656 35.6335 43.1413 35.6335 43.792C35.6335 44.3147 35.7988 44.7147 36.1295 44.992C36.4602 45.2587 36.9082 45.392 37.4735 45.392C38.3802 45.392 39.0735 45.1413 39.5535 44.64C40.0442 44.1387 40.2948 43.4347 40.3055 42.528V41.696L38.8495 41.76ZM47.7316 37.328C48.7023 37.328 49.4436 37.5787 49.9556 38.08C50.4676 38.5813 50.7236 39.3707 50.7236 40.448V46H49.8276V40.496C49.8276 39.6747 49.641 39.072 49.2676 38.688C48.8943 38.304 48.345 38.112 47.6196 38.112C46.6916 38.112 45.993 38.384 45.5236 38.928C45.0543 39.472 44.8196 40.2827 44.8196 41.36V46H43.9236V37.488H44.6436L44.7876 38.96H44.8356C44.9956 38.6507 45.209 38.3733 45.4756 38.128C45.7423 37.8827 46.0623 37.6907 46.4356 37.552C46.8196 37.4027 47.2516 37.328 47.7316 37.328ZM56.4953 46.16C55.3539 46.16 54.4739 45.7973 53.8553 45.072C53.2473 44.336 52.9433 43.2587 52.9433 41.84C52.9433 40.368 53.2633 39.248 53.9033 38.48C54.5539 37.712 55.4446 37.328 56.5753 37.328C57.0553 37.328 57.4713 37.4027 57.8233 37.552C58.1753 37.6907 58.4739 37.8827 58.7193 38.128C58.9753 38.3733 59.1726 38.6507 59.3113 38.96H59.3753C59.3646 38.704 59.3486 38.4267 59.3273 38.128C59.3166 37.8187 59.3113 37.5413 59.3113 37.296V33.84H60.2233V46H59.4873L59.3593 44.512H59.3113C59.1619 44.8107 58.9646 45.088 58.7193 45.344C58.4739 45.5893 58.1699 45.7867 57.8073 45.936C57.4446 46.0853 57.0073 46.16 56.4953 46.16ZM56.6073 45.376C57.5993 45.376 58.2979 45.0773 58.7033 44.48C59.1193 43.8827 59.3273 43.0187 59.3273 41.888V41.744C59.3273 40.5707 59.1193 39.6747 58.7033 39.056C58.2979 38.4267 57.6206 38.112 56.6713 38.112C55.7539 38.112 55.0606 38.4373 54.5913 39.088C54.1219 39.728 53.8873 40.6507 53.8873 41.856C53.8873 43.008 54.1113 43.8827 54.5593 44.48C55.0073 45.0773 55.6899 45.376 56.6073 45.376ZM69.9256 46H66.5816V45.424L67.7976 45.248V35.344L66.5816 35.152V34.576H69.9256V35.152L68.7096 35.344V45.248L69.9256 45.424V46ZM75.9504 37.328C76.921 37.328 77.6624 37.5787 78.1744 38.08C78.6864 38.5813 78.9424 39.3707 78.9424 40.448V46H78.0464V40.496C78.0464 39.6747 77.8597 39.072 77.4864 38.688C77.113 38.304 76.5637 38.112 75.8384 38.112C74.9104 38.112 74.2117 38.384 73.7424 38.928C73.273 39.472 73.0384 40.2827 73.0384 41.36V46H72.1424V37.488H72.8624L73.0064 38.96H73.0544C73.2144 38.6507 73.4277 38.3733 73.6944 38.128C73.961 37.8827 74.281 37.6907 74.6544 37.552C75.0384 37.4027 75.4704 37.328 75.9504 37.328ZM85.066 46.16C84.234 46.16 83.5247 45.9893 82.938 45.648C82.362 45.296 81.9193 44.7947 81.61 44.144C81.3113 43.4933 81.162 42.7093 81.162 41.792C81.162 40.832 81.3327 40.0213 81.674 39.36C82.026 38.6987 82.506 38.1973 83.114 37.856C83.722 37.504 84.4367 37.328 85.258 37.328C85.6633 37.328 86.042 37.3707 86.394 37.456C86.7567 37.5307 87.0767 37.632 87.354 37.76L87.114 38.528C86.826 38.4107 86.5167 38.32 86.186 38.256C85.8553 38.1813 85.5407 38.144 85.242 38.144C84.5593 38.144 83.9833 38.2933 83.514 38.592C83.0553 38.88 82.7033 39.296 82.458 39.84C82.2233 40.384 82.106 41.0347 82.106 41.792C82.106 42.496 82.2073 43.12 82.41 43.664C82.6233 44.1973 82.9487 44.6133 83.386 44.912C83.8233 45.2107 84.3833 45.36 85.066 45.36C85.482 45.36 85.8713 45.3173 86.234 45.232C86.6073 45.1467 86.9487 45.0347 87.258 44.896V45.728C86.9807 45.8453 86.6607 45.9467 86.298 46.032C85.9353 46.1173 85.5247 46.16 85.066 46.16ZM89.1234 45.392C89.1234 45.1253 89.182 44.928 89.2994 44.8C89.4167 44.672 89.582 44.608 89.7954 44.608C90.03 44.608 90.206 44.672 90.3234 44.8C90.4514 44.928 90.5154 45.1253 90.5154 45.392C90.5154 45.648 90.4514 45.8453 90.3234 45.984C90.206 46.112 90.03 46.176 89.7954 46.176C89.582 46.176 89.4167 46.112 89.2994 45.984C89.182 45.8453 89.1234 45.648 89.1234 45.392Z" fill="black"/>
</svg>
