<svg width="193" height="159" viewBox="0 0 193 159" fill="none" xmlns="http://www.w3.org/2000/svg">
<path d="M43.9432 43.2614C43.6705 40.5114 42.5 38.375 40.4318 36.8523C38.3636 35.3295 35.5568 34.5682 32.0114 34.5682C29.6023 34.5682 27.5682 34.9091 25.9091 35.5909C24.25 36.25 22.9773 37.1705 22.0909 38.3523C21.2273 39.5341 20.7955 40.875 20.7955 42.375C20.75 43.625 21.0114 44.7159 21.5795 45.6477C22.1705 46.5795 22.9773 47.3864 24 48.0682C25.0227 48.7273 26.2045 49.3068 27.5455 49.8068C28.8864 50.2841 30.3182 50.6932 31.8409 51.0341L38.1136 52.5341C41.1591 53.2159 43.9545 54.125 46.5 55.2614C49.0455 56.3977 51.25 57.7955 53.1136 59.4545C54.9773 61.1136 56.4205 63.0682 57.4432 65.3182C58.4886 67.5682 59.0227 70.1477 59.0455 73.0568C59.0227 77.3295 57.9318 81.0341 55.7727 84.1705C53.6364 87.2841 50.5455 89.7045 46.5 91.4318C42.4773 93.1364 37.625 93.9886 31.9432 93.9886C26.3068 93.9886 21.3977 93.125 17.2159 91.3977C13.0568 89.6705 9.80682 87.1136 7.46591 83.7273C5.14773 80.3182 3.93182 76.1023 3.81818 71.0795H18.1023C18.2614 73.4205 18.9318 75.375 20.1136 76.9432C21.3182 78.4886 22.9205 79.6591 24.9205 80.4545C26.9432 81.2273 29.2273 81.6136 31.7727 81.6136C34.2727 81.6136 36.4432 81.25 38.2841 80.5227C40.1477 79.7955 41.5909 78.7841 42.6136 77.4886C43.6364 76.1932 44.1477 74.7045 44.1477 73.0227C44.1477 71.4545 43.6818 70.1364 42.75 69.0682C41.8409 68 40.5 67.0909 38.7273 66.3409C36.9773 65.5909 34.8295 64.9091 32.2841 64.2955L24.6818 62.3864C18.7955 60.9545 14.1477 58.7159 10.7386 55.6705C7.32955 52.625 5.63636 48.5227 5.65909 43.3636C5.63636 39.1364 6.76136 35.4432 9.03409 32.2841C11.3295 29.125 14.4773 26.6591 18.4773 24.8864C22.4773 23.1136 27.0227 22.2273 32.1136 22.2273C37.2955 22.2273 41.8182 23.1136 45.6818 24.8864C49.5682 26.6591 52.5909 29.125 54.75 32.2841C56.9091 35.4432 58.0227 39.1023 58.0909 43.2614H43.9432ZM102.281 70.7045V40.6364H116.804V93H102.861V83.4886H102.315C101.134 86.5568 99.1676 89.0227 96.4176 90.8864C93.6903 92.75 90.3608 93.6818 86.429 93.6818C82.929 93.6818 79.8494 92.8864 77.1903 91.2955C74.5313 89.7045 72.4517 87.4432 70.9517 84.5114C69.4744 81.5795 68.7244 78.0682 68.7017 73.9773V40.6364H83.2244V71.3864C83.2472 74.4773 84.0767 76.9205 85.7131 78.7159C87.3494 80.5114 89.5426 81.4091 92.2926 81.4091C94.0426 81.4091 95.679 81.0114 97.2017 80.2159C98.7244 79.3977 99.9517 78.1932 100.884 76.6023C101.838 75.0114 102.304 73.0455 102.281 70.7045ZM171.818 23.1818H186.58V68.5227C186.58 73.6136 185.364 78.0682 182.932 81.8864C180.523 85.7045 177.148 88.6818 172.807 90.8182C168.466 92.9318 163.409 93.9886 157.636 93.9886C151.841 93.9886 146.773 92.9318 142.432 90.8182C138.091 88.6818 134.716 85.7045 132.307 81.8864C129.898 78.0682 128.693 73.6136 128.693 68.5227V23.1818H143.455V67.2614C143.455 69.9205 144.034 72.2841 145.193 74.3523C146.375 76.4205 148.034 78.0455 150.17 79.2273C152.307 80.4091 154.795 81 157.636 81C160.5 81 162.989 80.4091 165.102 79.2273C167.239 78.0455 168.886 76.4205 170.045 74.3523C171.227 72.2841 171.818 69.9205 171.818 67.2614V23.1818Z" fill="#00254C"/>
<path d="M31.8182 144.659C29.5909 144.659 27.6061 144.273 25.8636 143.5C24.1212 142.712 22.7424 141.553 21.7273 140.023C20.7273 138.477 20.2273 136.553 20.2273 134.25C20.2273 132.311 20.5833 130.682 21.2955 129.364C22.0076 128.045 22.9773 126.985 24.2045 126.182C25.4318 125.379 26.8258 124.773 28.3864 124.364C29.9621 123.955 31.6136 123.667 33.3409 123.5C35.3712 123.288 37.0076 123.091 38.25 122.909C39.4924 122.712 40.3939 122.424 40.9545 122.045C41.5152 121.667 41.7955 121.106 41.7955 120.364V120.227C41.7955 118.788 41.3409 117.674 40.4318 116.886C39.5379 116.098 38.2652 115.705 36.6136 115.705C34.8712 115.705 33.4848 116.091 32.4545 116.864C31.4242 117.621 30.7424 118.576 30.4091 119.727L21.4545 119C21.9091 116.879 22.803 115.045 24.1364 113.5C25.4697 111.939 27.1894 110.742 29.2955 109.909C31.4167 109.061 33.8712 108.636 36.6591 108.636C38.5985 108.636 40.4545 108.864 42.2273 109.318C44.0152 109.773 45.5985 110.477 46.9773 111.432C48.3712 112.386 49.4697 113.614 50.2727 115.114C51.0758 116.598 51.4773 118.379 51.4773 120.455V144H42.2955V139.159H42.0227C41.4621 140.25 40.7121 141.212 39.7727 142.045C38.8333 142.864 37.7045 143.508 36.3864 143.977C35.0682 144.432 33.5455 144.659 31.8182 144.659ZM34.5909 137.977C36.0152 137.977 37.2727 137.697 38.3636 137.136C39.4545 136.561 40.3106 135.788 40.9318 134.818C41.553 133.848 41.8636 132.75 41.8636 131.523V127.818C41.5606 128.015 41.1439 128.197 40.6136 128.364C40.0985 128.515 39.5152 128.659 38.8636 128.795C38.2121 128.917 37.5606 129.03 36.9091 129.136C36.2576 129.227 35.6667 129.311 35.1364 129.386C34 129.553 33.0076 129.818 32.1591 130.182C31.3106 130.545 30.6515 131.038 30.1818 131.659C29.7121 132.265 29.4773 133.023 29.4773 133.932C29.4773 135.25 29.9545 136.258 30.9091 136.955C31.8788 137.636 33.1061 137.977 34.5909 137.977ZM87.8705 123.818V144H78.1886V109.091H87.4159V115.25H87.825C88.5977 113.22 89.8932 111.614 91.7114 110.432C93.5295 109.235 95.7341 108.636 98.325 108.636C100.749 108.636 102.863 109.167 104.666 110.227C106.469 111.288 107.87 112.803 108.87 114.773C109.87 116.727 110.37 119.061 110.37 121.773V144H100.689V123.5C100.704 121.364 100.158 119.697 99.0523 118.5C97.9462 117.288 96.4235 116.682 94.4841 116.682C93.1811 116.682 92.0295 116.962 91.0295 117.523C90.0447 118.083 89.272 118.902 88.7114 119.977C88.1659 121.038 87.8856 122.318 87.8705 123.818ZM150.065 144.568C147.413 144.568 145.012 143.886 142.86 142.523C140.724 141.144 139.027 139.121 137.769 136.455C136.527 133.773 135.906 130.485 135.906 126.591C135.906 122.591 136.55 119.265 137.838 116.614C139.125 113.947 140.838 111.955 142.974 110.636C145.125 109.303 147.481 108.636 150.042 108.636C151.997 108.636 153.625 108.97 154.928 109.636C156.247 110.288 157.307 111.106 158.11 112.091C158.928 113.061 159.55 114.015 159.974 114.955H160.269V97.4545H169.928V144H160.383V138.409H159.974C159.519 139.379 158.875 140.341 158.042 141.295C157.224 142.235 156.156 143.015 154.838 143.636C153.534 144.258 151.944 144.568 150.065 144.568ZM153.133 136.864C154.694 136.864 156.012 136.439 157.088 135.591C158.178 134.727 159.012 133.523 159.588 131.977C160.178 130.432 160.474 128.621 160.474 126.545C160.474 124.47 160.186 122.667 159.61 121.136C159.034 119.606 158.201 118.424 157.11 117.591C156.019 116.758 154.694 116.341 153.133 116.341C151.542 116.341 150.201 116.773 149.11 117.636C148.019 118.5 147.194 119.697 146.633 121.227C146.072 122.758 145.792 124.53 145.792 126.545C145.792 128.576 146.072 130.371 146.633 131.932C147.209 133.477 148.034 134.689 149.11 135.568C150.201 136.432 151.542 136.864 153.133 136.864Z" fill="#00254C"/>
</svg>
