<svg width="155" height="120" viewBox="0 0 155 120" fill="none" xmlns="http://www.w3.org/2000/svg">
<circle cx="95" cy="60" r="59.7" stroke="white" stroke-width="0.6"/>
<rect y="44" width="134" height="33" fill="#001526"/>
<path d="M11.88 65.56C11.88 66.584 11.624 67.448 11.112 68.152C10.616 68.84 9.92 69.36 9.024 69.712C8.128 70.064 7.112 70.24 5.976 70.24C5.272 70.24 4.64 70.2 4.08 70.12C3.52 70.056 3.008 69.976 2.544 69.88C2.08 69.768 1.664 69.64 1.296 69.496V68.104C1.904 68.344 2.608 68.56 3.408 68.752C4.208 68.928 5.088 69.016 6.048 69.016C6.928 69.016 7.696 68.888 8.352 68.632C9.024 68.376 9.544 68 9.912 67.504C10.296 67.008 10.488 66.384 10.488 65.632C10.488 64.944 10.328 64.384 10.008 63.952C9.704 63.52 9.224 63.144 8.568 62.824C7.928 62.488 7.104 62.152 6.096 61.816C5.376 61.56 4.728 61.296 4.152 61.024C3.592 60.752 3.112 60.432 2.712 60.064C2.312 59.696 2.008 59.264 1.8 58.768C1.592 58.272 1.488 57.672 1.488 56.968C1.488 56.024 1.728 55.232 2.208 54.592C2.688 53.952 3.336 53.464 4.152 53.128C4.984 52.792 5.92 52.624 6.96 52.624C7.792 52.624 8.584 52.704 9.336 52.864C10.088 53.008 10.8 53.232 11.472 53.536L11.016 54.736C10.344 54.448 9.664 54.232 8.976 54.088C8.288 53.944 7.6 53.872 6.912 53.872C6.112 53.872 5.408 53.992 4.8 54.232C4.208 54.456 3.744 54.8 3.408 55.264C3.072 55.712 2.904 56.272 2.904 56.944C2.904 57.68 3.064 58.272 3.384 58.72C3.704 59.168 4.168 59.544 4.776 59.848C5.384 60.136 6.128 60.432 7.008 60.736C8.016 61.088 8.88 61.464 9.6 61.864C10.336 62.248 10.896 62.728 11.28 63.304C11.68 63.88 11.88 64.632 11.88 65.56ZM25.2696 57.232V70H24.1416L23.9496 67.816H23.8776C23.6536 68.28 23.3336 68.696 22.9176 69.064C22.5176 69.432 22.0376 69.72 21.4776 69.928C20.9176 70.136 20.2696 70.24 19.5336 70.24C18.5416 70.24 17.7096 70.072 17.0376 69.736C16.3816 69.384 15.8856 68.864 15.5496 68.176C15.2136 67.488 15.0456 66.632 15.0456 65.608V57.232H16.4136V65.488C16.4136 66.704 16.6856 67.608 17.2296 68.2C17.7896 68.776 18.6056 69.064 19.6776 69.064C20.6216 69.064 21.4056 68.888 22.0296 68.536C22.6536 68.168 23.1176 67.624 23.4216 66.904C23.7416 66.184 23.9016 65.288 23.9016 64.216V57.232H25.2696ZM42.471 63.952C42.471 65.264 42.215 66.392 41.703 67.336C41.191 68.264 40.455 68.984 39.495 69.496C38.535 69.992 37.359 70.24 35.967 70.24C33.919 70.24 32.343 69.688 31.239 68.584C30.151 67.464 29.607 65.904 29.607 63.904V52.864H30.975V63.904C30.975 65.568 31.407 66.84 32.271 67.72C33.135 68.584 34.391 69.016 36.039 69.016C37.127 69.016 38.047 68.824 38.799 68.44C39.551 68.04 40.119 67.472 40.503 66.736C40.903 65.984 41.103 65.088 41.103 64.048V52.864H42.471V63.952ZM57.5303 57.016C58.9703 57.016 60.0423 57.368 60.7463 58.072C61.4503 58.776 61.8023 59.896 61.8023 61.432V70H60.7703L60.5303 67.84H60.4583C60.1543 68.32 59.8023 68.744 59.4023 69.112C59.0183 69.464 58.5463 69.744 57.9863 69.952C57.4423 70.144 56.7703 70.24 55.9703 70.24C55.1703 70.24 54.4743 70.104 53.8823 69.832C53.2903 69.544 52.8343 69.136 52.5143 68.608C52.1943 68.08 52.0343 67.432 52.0343 66.664C52.0343 65.4 52.5543 64.44 53.5943 63.784C54.6343 63.112 56.1463 62.728 58.1303 62.632L60.4583 62.536V61.624C60.4583 60.36 60.2023 59.472 59.6903 58.96C59.1943 58.432 58.4503 58.168 57.4583 58.168C56.8023 58.168 56.1703 58.256 55.5623 58.432C54.9703 58.592 54.3703 58.824 53.7623 59.128L53.3303 58.048C53.9223 57.744 54.5783 57.496 55.2983 57.304C56.0183 57.112 56.7623 57.016 57.5303 57.016ZM58.2743 63.64C56.6583 63.72 55.4503 64.008 54.6503 64.504C53.8503 64.984 53.4503 65.712 53.4503 66.688C53.4503 67.472 53.6983 68.072 54.1943 68.488C54.6903 68.888 55.3623 69.088 56.2103 69.088C57.5703 69.088 58.6103 68.712 59.3303 67.96C60.0663 67.208 60.4423 66.152 60.4583 64.792V63.544L58.2743 63.64ZM71.5974 56.992C73.0534 56.992 74.1654 57.368 74.9334 58.12C75.7014 58.872 76.0854 60.056 76.0854 61.672V70H74.7414V61.744C74.7414 60.512 74.4614 59.608 73.9014 59.032C73.3414 58.456 72.5174 58.168 71.4294 58.168C70.0374 58.168 68.9894 58.576 68.2854 59.392C67.5814 60.208 67.2294 61.424 67.2294 63.04V70H65.8854V57.232H66.9654L67.1814 59.44H67.2534C67.4934 58.976 67.8134 58.56 68.2134 58.192C68.6134 57.824 69.0934 57.536 69.6534 57.328C70.2294 57.104 70.8774 56.992 71.5974 56.992ZM84.7429 70.24C83.0309 70.24 81.7109 69.696 80.7829 68.608C79.8709 67.504 79.4149 65.888 79.4149 63.76C79.4149 61.552 79.8949 59.872 80.8549 58.72C81.8309 57.568 83.1669 56.992 84.8629 56.992C85.5829 56.992 86.2069 57.104 86.7349 57.328C87.2629 57.536 87.7109 57.824 88.0789 58.192C88.4629 58.56 88.7589 58.976 88.9669 59.44H89.0629C89.0469 59.056 89.0229 58.64 88.9909 58.192C88.9749 57.728 88.9669 57.312 88.9669 56.944V51.76H90.3349V70H89.2309L89.0389 67.768H88.9669C88.7429 68.216 88.4469 68.632 88.0789 69.016C87.7109 69.384 87.2549 69.68 86.7109 69.904C86.1669 70.128 85.5109 70.24 84.7429 70.24ZM84.9109 69.064C86.3989 69.064 87.4469 68.616 88.0549 67.72C88.6789 66.824 88.9909 65.528 88.9909 63.832V63.616C88.9909 61.856 88.6789 60.512 88.0549 59.584C87.4469 58.64 86.4309 58.168 85.0069 58.168C83.6309 58.168 82.5909 58.656 81.8869 59.632C81.1829 60.592 80.8309 61.976 80.8309 63.784C80.8309 65.512 81.1669 66.824 81.8389 67.72C82.5109 68.616 83.5349 69.064 84.9109 69.064ZM104.888 70H99.8724V69.136L101.696 68.872V54.016L99.8724 53.728V52.864H104.888V53.728L103.064 54.016V68.872L104.888 69.136V70ZM113.926 56.992C115.382 56.992 116.494 57.368 117.262 58.12C118.03 58.872 118.414 60.056 118.414 61.672V70H117.07V61.744C117.07 60.512 116.79 59.608 116.23 59.032C115.67 58.456 114.846 58.168 113.758 58.168C112.366 58.168 111.318 58.576 110.614 59.392C109.91 60.208 109.558 61.424 109.558 63.04V70H108.214V57.232H109.294L109.51 59.44H109.582C109.822 58.976 110.142 58.56 110.542 58.192C110.942 57.824 111.422 57.536 111.982 57.328C112.558 57.104 113.206 56.992 113.926 56.992ZM127.599 70.24C126.351 70.24 125.287 69.984 124.407 69.472C123.543 68.944 122.879 68.192 122.415 67.216C121.967 66.24 121.743 65.064 121.743 63.688C121.743 62.248 121.999 61.032 122.511 60.04C123.039 59.048 123.759 58.296 124.671 57.784C125.583 57.256 126.655 56.992 127.887 56.992C128.495 56.992 129.063 57.056 129.591 57.184C130.135 57.296 130.615 57.448 131.031 57.64L130.671 58.792C130.239 58.616 129.775 58.48 129.279 58.384C128.783 58.272 128.311 58.216 127.863 58.216C126.839 58.216 125.975 58.44 125.271 58.888C124.583 59.32 124.055 59.944 123.687 60.76C123.335 61.576 123.159 62.552 123.159 63.688C123.159 64.744 123.311 65.68 123.615 66.496C123.935 67.296 124.423 67.92 125.079 68.368C125.735 68.816 126.575 69.04 127.599 69.04C128.223 69.04 128.807 68.976 129.351 68.848C129.911 68.72 130.423 68.552 130.887 68.344V69.592C130.471 69.768 129.991 69.92 129.447 70.048C128.903 70.176 128.287 70.24 127.599 70.24ZM133.685 69.088C133.685 68.688 133.773 68.392 133.949 68.2C134.125 68.008 134.373 67.912 134.693 67.912C135.045 67.912 135.309 68.008 135.485 68.2C135.677 68.392 135.773 68.688 135.773 69.088C135.773 69.472 135.677 69.768 135.485 69.976C135.309 70.168 135.045 70.264 134.693 70.264C134.373 70.264 134.125 70.168 133.949 69.976C133.773 69.768 133.685 69.472 133.685 69.088Z" fill="white"/>
</svg>
